<svg xmlns="http://www.w3.org/2000/svg" width="1100" height="740" viewBox="0 0 1100 740">
<defs><linearGradient id="chart" x1="0" y1="0" x2="0" y2="1"><stop stop-color="#84b8a1" stop-opacity=".23"/><stop offset="1" stop-color="#84b8a1" stop-opacity="0"/></linearGradient></defs>
<rect width="1100" height="740" fill="#fff"/>
<rect width="208" height="740" fill="#f7f9f7"/><path d="M208 0V740" stroke="#e8ece9"/>
<rect x="26" y="29" width="27" height="27" rx="8" fill="#285c46"/><path d="M33 45l6-9 7 9" fill="none" stroke="#fff" stroke-width="2"/>
<g font-family="Arial,sans-serif"><text x="64" y="50" font-size="22" font-weight="700" fill="#243a2e">Forma</text><text x="27" y="99" font-size="10" fill="#8c9790" letter-spacing="1.5">WORKSPACE</text>
<rect x="16" y="119" width="175" height="39" rx="7" fill="#e5eee7"/><g font-size="13" fill="#78857c"><text x="47" y="143" fill="#285c46" font-weight="600">Overview</text><text x="47" y="188">Projects</text><text x="47" y="231">Activity</text><text x="47" y="274">Your team</text><text x="47" y="317">Reports</text></g><g fill="none" stroke="#94a096" stroke-width="1.5"><rect x="28" y="132" width="10" height="10" rx="2"/><rect x="28" y="177" width="10" height="10" rx="2"/><circle cx="33" cy="226" r="5"/><circle cx="33" cy="269" r="5"/><rect x="28" y="306" width="10" height="10" rx="2"/></g>
<rect x="22" y="605" width="163" height="69" rx="8" fill="#edf1ec"/><text x="35" y="628" font-size="12" fill="#37533e" font-weight="600">A little room to grow.</text><text x="35" y="649" font-size="11" fill="#859087">Explore your workspace ↗</text>
<circle cx="36" cy="708" r="12" fill="#dbbda7"/><text x="58" y="712" font-size="12" fill="#4a584f">Alex Morgan</text>
<text x="246" y="47" font-size="12" fill="#8c968f">Workspace / Overview</text><circle cx="1048" cy="42" r="13" fill="#e5ece6"/><path d="M240 72H1069" stroke="#ecefed"/>
<text x="246" y="126" font-size="26" font-weight="600" fill="#283d30">Good things are taking shape.</text><text x="246" y="153" font-size="13" fill="#8c968f">A little perspective on your team's progress.</text><rect x="931" y="107" width="131" height="35" rx="6" fill="#f6f8f5" stroke="#e5eae4"/><text x="946" y="129" font-size="11" fill="#68796d">↗  Last 30 days</text>
<g fill="#fff" stroke="#e7ece8"><rect x="246" y="184" width="257" height="117" rx="9"/><rect x="521" y="184" width="258" height="117" rx="9"/><rect x="797" y="184" width="265" height="117" rx="9"/></g>
<g font-size="12" fill="#89948c"><text x="265" y="214">Total revenue</text><text x="540" y="214">Active projects</text><text x="817" y="214">Team productivity</text></g><g font-size="29" fill="#293e31" font-weight="600"><text x="265" y="256">$24,680</text><text x="540" y="256">18</text><text x="817" y="256">94.2%</text></g><g font-size="10" fill="#56876a"><text x="265" y="280">↗ 12.8% from last month</text><text x="540" y="280">+ 4 new this month</text><text x="817" y="280">↗ 6.4% from last month</text></g>
<rect x="246" y="322" width="816" height="240" rx="9" fill="#fff" stroke="#e7ece8"/><text x="266" y="353" font-size="14" font-weight="600" fill="#344b3b">Revenue overview</text><text x="961" y="351" font-size="10" fill="#819488">● This month</text>
<g stroke="#eff2ed"><path d="M285 389H1040M285 430H1040M285 471H1040M285 512H1040"/></g>
<path d="M287 489C338 489 342 458 397 464S454 486 496 450S554 473 612 437S673 456 727 414S785 448 840 404S902 419 954 382S999 389 1038 374V513H287Z" fill="url(#chart)"/><path d="M287 489C338 489 342 458 397 464S454 486 496 450S554 473 612 437S673 456 727 414S785 448 840 404S902 419 954 382S999 389 1038 374" fill="none" stroke="#5a9576" stroke-width="3" stroke-linecap="round"/>
<g font-size="9" fill="#a1aaa3"><text x="285" y="540">Sep 01</text><text x="471" y="540">Sep 08</text><text x="650" y="540">Sep 15</text><text x="836" y="540">Sep 22</text><text x="1000" y="540">Sep 30</text></g>
<text x="246" y="602" font-size="14" font-weight="600" fill="#344b3b">Recent projects</text><text x="1000" y="602" font-size="11" fill="#819488">View all ↗</text><path d="M246 620H1062M246 669H1062M246 718H1062" stroke="#edf0ec"/><rect x="249" y="633" width="25" height="25" rx="5" fill="#e6ebe1"/><text x="286" y="650" font-size="12" fill="#5a6a5d">Website refresh</text><text x="722" y="650" font-size="11" fill="#89958b">Design team</text><rect x="964" y="635" width="83" height="23" rx="5" fill="#eaf3ed"/><text x="975" y="650" font-size="10" fill="#61826b">In progress</text><rect x="249" y="682" width="25" height="25" rx="5" fill="#e9e3d8"/><text x="286" y="699" font-size="12" fill="#5a6a5d">Autumn campaign</text><text x="722" y="699" font-size="11" fill="#89958b">Marketing</text><rect x="964" y="684" width="83" height="23" rx="5" fill="#f5f1e8"/><text x="984" y="699" font-size="10" fill="#a29570">In review</text></g></svg>
